<svg width="20" height="20" viewBox="0 0 20 20" fill="none" xmlns="http://www.w3.org/2000/svg">
<path fill-rule="evenodd" clip-rule="evenodd" d="M9.32759 0.904067C10.113 0.707718 10.9727 0.848938 11.8182 1.0603L11.8323 1.06382L16.0396 2.326L16.0655 2.33634C17.1869 2.78493 17.9655 3.38768 18.3715 4.19963C18.7771 5.01072 18.7501 5.90988 18.523 6.81823L18.5206 6.8277L16.849 13.0962L16.8429 13.1143C16.4202 14.3826 15.5075 15.8904 13.623 16.031C13.5852 16.0808 13.5532 16.1295 13.5159 16.1862C13.4713 16.254 13.4192 16.3333 13.3405 16.4398C13.1328 16.721 12.8649 16.9747 12.3628 17.2257L12.3231 17.2455L7.28099 18.9262C6.51791 19.1806 5.5409 19.1753 4.68562 18.8699C3.81708 18.5597 2.9992 17.9071 2.72699 16.8182L2.72424 16.8072L1.47227 11.3816L1.47047 11.3726C1.25971 10.3188 1.13213 9.27745 1.31422 8.36703C1.50605 7.40788 2.038 6.61558 3.05381 6.10763L3.09354 6.08776L6.58923 4.92254L7.33778 2.67686L7.35765 2.63713C7.83756 1.67731 8.48931 1.11363 9.32759 0.904067ZM6.17308 6.37887L3.57522 7.24482C2.95033 7.56899 2.65826 8.02058 2.53994 8.61218C2.4099 9.26238 2.48981 10.093 2.69441 11.1185L3.94094 16.5201C4.08666 17.0952 4.51798 17.4827 5.10604 17.6927C5.70909 17.908 6.39876 17.9027 6.88567 17.7404L11.8416 16.0884C12.0837 15.9632 12.2009 15.8601 12.2809 15.766L7.27245 14.335L7.22049 14.309C6.29252 13.845 5.64158 13.2273 5.30849 12.4279C4.97878 11.6365 4.99924 10.7594 5.22699 9.84839L5.22861 9.84194L6.17308 6.37887ZM13.4162 14.7903C14.6089 14.7514 15.2695 13.8705 15.6511 12.7367L17.3115 6.51049C17.4998 5.75449 17.4725 5.19668 17.2535 4.75865C17.0364 4.32446 16.5714 3.88942 15.6265 3.50711L11.5012 2.26951C10.6872 2.06697 10.0927 2.00127 9.63075 2.11675C9.22653 2.2178 8.84332 2.47953 8.49504 3.15794L7.68174 5.59783L6.43811 10.1578C6.25087 10.9104 6.27175 11.4897 6.46234 11.9471C6.64577 12.3873 7.023 12.8022 7.72923 13.1655L13.4162 14.7903Z" fill="black"/>
</svg>
